<svg width="1411" height="1499" viewBox="0 0 1411 1499" fill="none" xmlns="http://www.w3.org/2000/svg">
<path d="M1561.25 1327.68C1905.66 1527.53 2405.41 1442.93 2651.84 1324.26L2639.72 -22.7327L843.319 -289.976C1111.28 -234.989 518.556 -73.9921 545.819 181.523C579.899 500.918 800.997 220.749 1158.5 341C1433.5 433.5 1368.36 599.976 1398.82 807.023C1141.96 1023.51 1378.3 1221.51 1561.25 1327.68Z" fill="#9E847B"/>
<path d="M1475.93 1298.65C1820.34 1498.51 2320.09 1413.91 2566.52 1295.23L2554.4 -51.7563L106.906 -61.8572C374.866 -6.8699 450.214 120.375 477.478 375.89C511.557 695.285 722.921 408.749 1078.1 281.802C1362.24 180.244 1498.05 431.023 1374.96 581.047C1118.1 797.537 1292.99 1192.49 1475.93 1298.65Z" fill="#E6D0AC"/>
</svg>
