<svg width="40" height="40" viewBox="0 0 40 40" fill="none" xmlns="http://www.w3.org/2000/svg">
<path d="M10.0001 36.6665C9.08342 36.6665 8.29842 36.3398 7.64508 35.6865C6.99175 35.0332 6.66564 34.2487 6.66675 33.3332V16.6665C6.66675 15.7498 6.99342 14.9648 7.64675 14.3115C8.30008 13.6582 9.08453 13.3321 10.0001 13.3332H11.6668V9.99984C11.6668 7.69428 12.4795 5.72873 14.1051 4.10317C15.7306 2.47762 17.6956 1.66539 20.0001 1.66651C22.3056 1.66651 24.2712 2.47928 25.8968 4.10484C27.5223 5.73039 28.3345 7.69539 28.3334 9.99984V13.3332H30.0001C30.9168 13.3332 31.7018 13.6598 32.3551 14.3132C33.0084 14.9665 33.3345 15.751 33.3334 16.6665V33.3332C33.3334 34.2498 33.0068 35.0348 32.3534 35.6882C31.7001 36.3415 30.9156 36.6676 30.0001 36.6665H10.0001ZM10.0001 33.3332H30.0001V16.6665H10.0001V33.3332ZM20.0001 28.3332C20.9168 28.3332 21.7018 28.0065 22.3551 27.3532C23.0084 26.6998 23.3345 25.9154 23.3334 24.9998C23.3334 24.0832 23.0068 23.2982 22.3534 22.6448C21.7001 21.9915 20.9156 21.6654 20.0001 21.6665C19.0834 21.6665 18.2984 21.9932 17.6451 22.6465C16.9918 23.2998 16.6656 24.0843 16.6668 24.9998C16.6668 25.9165 16.9934 26.7015 17.6468 27.3548C18.3001 28.0082 19.0845 28.3343 20.0001 28.3332ZM15.0001 13.3332H25.0001V9.99984C25.0001 8.61095 24.514 7.43039 23.5418 6.45817C22.5695 5.48595 21.389 4.99984 20.0001 4.99984C18.6112 4.99984 17.4306 5.48595 16.4584 6.45817C15.4862 7.43039 15.0001 8.61095 15.0001 9.99984V13.3332Z" fill="white"/>
</svg>
