<svg width="32" height="32" viewBox="0 0 32 32" fill="none" xmlns="http://www.w3.org/2000/svg">
<path d="M16 29.3337C14.1778 29.3337 12.4556 28.9834 10.8334 28.283C9.21113 27.5825 7.79424 26.627 6.58269 25.4163C5.37202 24.2057 4.41647 22.7892 3.71602 21.167C3.01558 19.5448 2.6658 17.8225 2.66669 16.0003C2.66669 14.1559 3.01691 12.4279 3.71736 10.8163C4.4178 9.20477 5.37336 7.7941 6.58402 6.58433C7.79469 5.37277 9.21069 4.41721 10.832 3.71766C12.4534 3.0181 14.176 2.66788 16 2.66699C17.8445 2.66699 19.5725 3.01721 21.184 3.71766C22.7956 4.4181 24.2062 5.37366 25.416 6.58433C26.6276 7.79499 27.5831 9.2061 28.2827 10.8177C28.9822 12.4292 29.3325 14.1568 29.3334 16.0003V17.9337C29.3334 19.2448 28.8836 20.3617 27.984 21.2843C27.0845 22.207 25.9787 22.6679 24.6667 22.667C23.8667 22.667 23.1222 22.4892 22.4334 22.1337C21.7445 21.7781 21.1778 21.3114 20.7334 20.7337C20.1334 21.3337 19.4276 21.8061 18.616 22.151C17.8045 22.4959 16.9325 22.6679 16 22.667C14.1556 22.667 12.5831 22.0168 11.2827 20.7163C9.98224 19.4159 9.33247 17.8439 9.33336 16.0003C9.33336 14.1559 9.98358 12.5834 11.284 11.283C12.5845 9.98255 14.1565 9.33277 16 9.33366C17.8445 9.33366 19.4169 9.98388 20.7174 11.2843C22.0178 12.5848 22.6676 14.1568 22.6667 16.0003V17.9337C22.6667 18.5781 22.8667 19.0834 23.2667 19.4497C23.6667 19.8159 24.1334 19.9994 24.6667 20.0003C25.2 20.0003 25.6667 19.8168 26.0667 19.4497C26.4667 19.0825 26.6667 18.5772 26.6667 17.9337V16.0003C26.6667 13.0892 25.6165 10.5834 23.516 8.48299C21.4156 6.38255 18.9102 5.33277 16 5.33366C13.0889 5.33366 10.5831 6.38388 8.48269 8.48433C6.38224 10.5848 5.33247 13.0901 5.33336 16.0003C5.33336 18.9114 6.38358 21.4172 8.48402 23.5177C10.5845 25.6181 13.0898 26.6679 16 26.667H22.6667V29.3337H16ZM16 20.0003C17.1111 20.0003 18.0556 19.6114 18.8334 18.8337C19.6111 18.0559 20 17.1114 20 16.0003C20 14.8892 19.6111 13.9448 18.8334 13.167C18.0556 12.3892 17.1111 12.0003 16 12.0003C14.8889 12.0003 13.9445 12.3892 13.1667 13.167C12.3889 13.9448 12 14.8892 12 16.0003C12 17.1114 12.3889 18.0559 13.1667 18.8337C13.9445 19.6114 14.8889 20.0003 16 20.0003Z" fill="#353535"/>
</svg>
