<svg width="32" height="32" viewBox="0 0 32 32" fill="none" xmlns="http://www.w3.org/2000/svg">
<path d="M9.33331 18.6667C8.59998 18.6667 7.97198 18.4053 7.44931 17.8827C6.92665 17.36 6.66576 16.7324 6.66665 16C6.66665 15.2667 6.92798 14.6387 7.45065 14.116C7.97331 13.5933 8.60087 13.3324 9.33331 13.3333C10.0666 13.3333 10.6946 13.5947 11.2173 14.1173C11.74 14.64 12.0009 15.2676 12 16C12 16.7333 11.7386 17.3613 11.216 17.884C10.6933 18.4067 10.0658 18.6676 9.33331 18.6667ZM9.33331 24C7.11109 24 5.2222 23.2222 3.66665 21.6667C2.11109 20.1111 1.33331 18.2222 1.33331 16C1.33331 13.7778 2.11109 11.8889 3.66665 10.3333C5.2222 8.77778 7.11109 8 9.33331 8C10.8222 8 12.1724 8.36667 13.384 9.1C14.5955 9.83333 15.5564 10.8 16.2666 12H27.4333C27.6111 12 27.7835 12.0333 27.9506 12.1C28.1178 12.1667 28.2675 12.2667 28.4 12.4L31.0666 15.0667C31.2 15.2 31.2942 15.3444 31.3493 15.5C31.4044 15.6556 31.4324 15.8222 31.4333 16C31.4333 16.1778 31.4053 16.3444 31.3493 16.5C31.2933 16.6556 31.1991 16.8 31.0666 16.9333L26.8333 21.1667C26.7222 21.2778 26.5889 21.3667 26.4333 21.4333C26.2778 21.5 26.1222 21.5444 25.9666 21.5667C25.8111 21.5889 25.6555 21.5778 25.5 21.5333C25.3444 21.4889 25.2 21.4111 25.0666 21.3L23.3333 20L21.4333 21.4333C21.3222 21.5222 21.2 21.5889 21.0666 21.6333C20.9333 21.6778 20.8 21.7 20.6666 21.7C20.5333 21.7 20.3942 21.6778 20.2493 21.6333C20.1044 21.5889 19.9769 21.5222 19.8666 21.4333L17.8333 20H16.2666C15.5555 21.2 14.5942 22.1667 13.3826 22.9C12.1711 23.6333 10.8213 24 9.33331 24ZM9.33331 21.3333C10.5778 21.3333 11.6724 20.9556 12.6173 20.2C13.5622 19.4444 14.1898 18.4889 14.5 17.3333H18.6666L20.6 18.7L23.3333 16.6667L25.7 18.5L28.2 16L26.8666 14.6667H14.5C14.1889 13.5111 13.5609 12.5556 12.616 11.8C11.6711 11.0444 10.5769 10.6667 9.33331 10.6667C7.86665 10.6667 6.61109 11.1889 5.56665 12.2333C4.5222 13.2778 3.99998 14.5333 3.99998 16C3.99998 17.4667 4.5222 18.7222 5.56665 19.7667C6.61109 20.8111 7.86665 21.3333 9.33331 21.3333Z" fill="#353535"/>
</svg>
