<svg width="1920" height="500" viewBox="0 0 1920 500" fill="none" xmlns="http://www.w3.org/2000/svg">
<path d="M0 0H1920V500H0V0Z" fill="#D48128"/>
<path d="M1979 0.499992C1979 29.5412 1967.46 57.3929 1946.93 77.9282C1926.39 98.4634 1898.54 110 1869.5 110C1840.46 110 1812.61 98.4634 1792.07 77.9282C1771.54 57.393 1760 29.5412 1760 0.500009L1808.39 0.500002C1808.39 16.7071 1814.83 32.2505 1826.29 43.7107C1837.75 55.1709 1853.29 61.6091 1869.5 61.6091C1885.71 61.6091 1901.25 55.1708 1912.71 43.7107C1924.17 32.2505 1930.61 16.7071 1930.61 0.499992H1979Z" fill="#C87924" fill-opacity="0.8"/>
<path fill-rule="evenodd" clip-rule="evenodd" d="M1726.12 406.144C1783.6 387.357 1814.97 325.527 1796.18 268.044C1777.39 210.562 1715.56 179.193 1658.08 197.981C1600.6 216.769 1569.23 278.599 1588.02 336.081C1606.81 393.564 1668.64 424.932 1726.12 406.144ZM1692.5 369C1729.23 369 1759 339.227 1759 302.5C1759 265.773 1729.23 236 1692.5 236C1655.77 236 1626 265.773 1626 302.5C1626 339.227 1655.77 369 1692.5 369Z" fill="#C87924"/>
<path d="M537.859 380.752C587.995 364.365 641.921 391.724 658.308 441.859C664.722 461.485 664.433 481.692 658.699 500H618.635C623.25 491.678 625.878 482.101 625.878 471.911C625.878 439.878 599.911 413.911 567.878 413.911C535.846 413.911 509.878 439.878 509.878 471.911C509.878 482.101 512.506 491.678 517.122 500H476.368C460.803 450.207 488.124 397.007 537.859 380.752Z" fill="#C87924"/>
<path fill-rule="evenodd" clip-rule="evenodd" d="M1246.57 362.866C1279.63 352.06 1297.67 316.496 1286.87 283.433C1276.06 250.37 1240.5 232.327 1207.43 243.134C1174.37 253.94 1156.33 289.504 1167.13 322.567C1177.94 355.63 1213.5 373.673 1246.57 362.866ZM1227.23 341.501C1248.35 341.501 1265.48 324.376 1265.48 303.251C1265.48 282.127 1248.35 265.001 1227.23 265.001C1206.11 265.001 1188.98 282.127 1188.98 303.251C1188.98 324.376 1206.11 341.501 1227.23 341.501Z" fill="#C87924"/>
<path d="M197.443 0C168.313 51.0906 160.035 113.821 179.745 174.126C216.801 287.501 338.75 349.37 452.126 312.314C565.501 275.258 627.37 153.309 590.314 39.9334C585.691 25.7901 579.748 12.4482 572.664 0H460.422C494.596 23.6752 516.979 63.1694 516.979 107.891C516.979 180.329 458.256 239.052 385.818 239.052C313.38 239.052 254.658 180.329 254.658 107.891C254.658 63.1694 277.04 23.6752 311.215 0H197.443Z" fill="#C87924"/>
<path d="M-36.9835 407.681C1.85276 394.987 43.6258 416.18 56.3193 455.016C61.2882 470.219 61.0644 485.872 56.6224 500.054H25.5875C29.1627 493.608 31.1985 486.189 31.1985 478.295C31.1985 453.482 11.0833 433.367 -13.73 433.367C-38.5433 433.367 -58.6585 453.482 -58.6585 478.295C-58.6585 486.189 -56.6227 493.608 -53.0475 500.054H-84.6164C-96.6736 461.483 -75.5101 420.273 -36.9835 407.681Z" fill="#C87924"/>
<path d="M1034.37 0C1049.02 37.0689 1090.21 56.769 1128.6 44.2197C1150.94 36.9198 1167.59 20.2555 1175.63 0H1142.19C1133.77 11.2013 1120.37 18.446 1105.28 18.446C1090.19 18.446 1076.79 11.2013 1068.37 0H1034.37Z" fill="#C87924"/>
<path fill-rule="evenodd" clip-rule="evenodd" d="M833.666 247.811C856.758 240.264 869.359 215.426 861.811 192.334C854.264 169.242 829.426 156.641 806.334 164.189C783.242 171.736 770.641 196.574 778.189 219.666C785.736 242.758 810.574 255.359 833.666 247.811ZM820.161 232.89C834.915 232.89 846.875 220.93 846.875 206.176C846.875 191.422 834.915 179.462 820.161 179.462C805.407 179.462 793.447 191.422 793.447 206.176C793.447 220.93 805.407 232.89 820.161 232.89Z" fill="#C87924"/>
</svg>
