<svg width="54" height="54" viewBox="0 0 54 54" fill="none" xmlns="http://www.w3.org/2000/svg">
<path d="M6.48009 16.02C6.21817 16.2813 6.01036 16.5916 5.86858 16.9333C5.72679 17.275 5.65381 17.6413 5.65381 18.0113C5.65381 18.3812 5.72679 18.7475 5.86858 19.0892C6.01036 19.4309 6.21817 19.7412 6.48009 20.0025L25.4026 38.925C25.6107 39.1336 25.858 39.2991 26.1302 39.412C26.4024 39.5249 26.6942 39.583 26.9888 39.583C27.2835 39.583 27.5753 39.5249 27.8475 39.412C28.1197 39.2991 28.3669 39.1336 28.5751 38.925L47.4976 20.0025C48.6001 18.9 48.6001 17.1225 47.4976 16.02C46.3951 14.9175 44.6176 14.9175 43.5151 16.02L27.0001 32.535L10.4626 15.9975C9.36009 14.9175 7.58259 14.9175 6.48009 16.02Z" fill="#E6D0AC"/>
</svg>
