<svg width="330" height="114" viewBox="0 0 330 114" fill="none" xmlns="http://www.w3.org/2000/svg">
<path fill-rule="evenodd" clip-rule="evenodd" d="M60.6605 36.3585C60.5378 36.4159 60.412 36.4787 60.2831 36.5472C60.0629 45.3516 60.0316 54.1567 60.1888 62.9623C60.5675 62.7417 60.9761 62.6161 61.4152 62.585C60.9582 62.8916 60.4552 63.1433 59.9058 63.3397C55.1869 61.6689 50.5329 59.9078 45.9435 58.0567C42.0831 56.5493 38.1524 55.1657 34.151 53.9057C34.0067 53.9189 33.9124 53.9817 33.868 54.0944C30.5912 52.9712 27.2578 51.9334 23.868 50.9812C23.3244 50.725 22.7899 50.4419 22.2642 50.1321C21.8835 49.5131 21.915 48.9155 22.3586 48.3397C34.4444 44.2844 46.5827 40.2591 58.7737 36.2642C59.4392 36.1117 60.068 36.1433 60.6605 36.3585Z" fill="#202021"/>
<path fill-rule="evenodd" clip-rule="evenodd" d="M60.6603 36.3584C72.7403 40.2697 84.8158 44.2007 96.8867 48.1509C97.846 48.8514 97.8775 49.5748 96.981 50.3207C92.8529 51.5967 88.7333 52.9175 84.6226 54.2829C84.3473 54.2956 84.0958 54.2327 83.8678 54.0942C83.3069 53.8137 82.7409 53.5307 82.1697 53.2452C76.5626 51.5761 70.9652 49.878 65.3773 48.1509C64.2656 47.8099 63.1335 47.5897 61.981 47.4905C61.9126 47.9454 62.1012 48.2284 62.5471 48.3395C69.6269 50.3539 76.6709 52.4607 83.6792 54.6603C83.8807 54.8365 84.1322 54.8995 84.4339 54.849C85.466 55.5376 86.1892 56.481 86.6037 57.6792C86.8265 59.6225 86.9209 61.5722 86.8867 63.5282C86.7418 63.3842 86.6475 63.1956 86.6037 62.9622C86.5409 64.1571 86.4778 65.3522 86.415 66.5471C86.202 63.7225 86.0133 60.8924 85.849 58.0565C85.8227 57.5009 85.6026 57.0605 85.1886 56.7358C84.6082 56.0007 83.8535 55.529 82.9244 55.3207C82.2669 55.2592 81.638 55.3535 81.0376 55.6037C80.9933 55.491 80.899 55.4282 80.7546 55.415C79.2767 55.9495 77.7986 56.4842 76.3207 57.0188C76.3637 57.0941 76.4267 57.1254 76.5093 57.1131C71.4661 58.9446 66.4346 60.7686 61.415 62.5848C60.976 62.6159 60.5673 62.7416 60.1886 62.9622C60.0314 54.1565 60.0627 45.3514 60.2829 36.5471C60.4118 36.4786 60.5377 36.4158 60.6603 36.3584Z" fill="#323232"/>
<path fill-rule="evenodd" clip-rule="evenodd" d="M83.8678 54.0943C83.9125 54.3378 83.8496 54.5265 83.6791 54.6603C76.6708 52.4607 69.6268 50.3539 62.547 48.3395C62.1012 48.2284 61.9125 47.9454 61.981 47.4905C63.1334 47.5897 64.2655 47.8099 65.3772 48.1509C70.9651 49.878 76.5625 51.5761 82.1696 53.2452C82.7408 53.5307 83.3068 53.8137 83.8678 54.0943Z" fill="#D9A841"/>
<path opacity="0.588" fill-rule="evenodd" clip-rule="evenodd" d="M83.8679 54.0942C84.0958 54.2327 84.3473 54.2956 84.6226 54.2829C84.5437 54.4191 84.4181 54.5135 84.2452 54.5659C84.3501 54.6382 84.413 54.7325 84.4339 54.849C84.1322 54.8995 83.8807 54.8365 83.6792 54.6603C83.8498 54.5265 83.9126 54.3378 83.8679 54.0942Z" fill="#7A672F"/>
<path opacity="0.514" fill-rule="evenodd" clip-rule="evenodd" d="M81.0378 55.6037C79.554 56.1639 78.0446 56.6669 76.5095 57.1132C76.4268 57.1254 76.3638 57.0941 76.3208 57.0188C77.7987 56.4843 79.2768 55.9496 80.7548 55.415C80.8991 55.4282 80.9934 55.4911 81.0378 55.6037Z" fill="#111213"/>
<path opacity="0.453" fill-rule="evenodd" clip-rule="evenodd" d="M33.8682 54.0944C33.9125 53.9818 34.0068 53.919 34.1512 53.9058C38.1525 55.1658 42.0833 56.5493 45.9436 58.0567C45.2672 58.1003 44.6697 57.9116 44.1512 57.4907C44.0884 57.5535 44.0253 57.6165 43.9625 57.6793C40.6101 56.4297 37.2453 55.2348 33.8682 54.0944Z" fill="#040405"/>
<path fill-rule="evenodd" clip-rule="evenodd" d="M79.1508 69C78.915 69.0145 78.7578 69.1404 78.6791 69.3774C78.601 69.2911 78.5067 69.2281 78.3961 69.1887C78.0367 69.9062 77.4706 70.4094 76.698 70.6981C76.4431 71.3975 76.0657 71.5234 75.5659 71.0755C76.0653 71.15 76.3797 70.8985 76.5093 70.3207C76.9833 69.9475 77.2663 69.4443 77.3584 68.8113C77.4842 66.107 77.4842 63.4024 77.3584 60.6981C77.035 60.4292 76.7835 60.4921 76.6036 60.8868C76.5797 63.6607 76.4538 66.4279 76.2263 69.1887C76.1635 68.8741 76.1004 68.5598 76.0376 68.2453C75.7429 68.1998 75.4599 68.2941 75.1885 68.5283C75.2514 68.5911 75.3144 68.6541 75.3772 68.717C75.0701 69.6572 74.9129 70.6321 74.9055 71.6415C74.3574 72.1032 73.917 72.5434 73.5848 72.9623C73.0714 72.7432 72.6312 72.8691 72.264 73.3396C71.2952 73.2094 70.3202 73.0836 69.3395 72.9623C69.0046 73.1753 68.6901 73.364 68.3961 73.5283C68.1019 73.42 67.8189 73.2943 67.547 73.1509C67.2793 73.3321 66.9963 73.4892 66.698 73.6226C64.6668 73.6764 62.6857 73.7707 60.7546 73.9057C60.707 73.5513 60.5812 73.174 60.3772 72.7736C60.2995 70.29 60.268 67.8372 60.2829 65.4151C61.2674 64.9555 62.148 64.5151 62.9244 64.0943C63.554 63.6538 64.2459 63.3077 64.9999 63.0566C69.714 61.3685 74.3995 59.6389 79.0565 57.8679C79.2744 59.5679 79.3687 61.2975 79.3395 63.0566C79.3276 65.0417 79.2648 67.0228 79.1508 69ZM76.698 69.3774C76.6736 69.7011 76.6108 70.0157 76.5093 70.3207C76.4465 70.3207 76.3835 70.3207 76.3206 70.3207C76.3021 69.9334 76.428 69.6189 76.698 69.3774ZM76.698 69.3774C76.804 66.5481 76.8984 63.7179 76.981 60.8868C77.0753 60.9811 77.1697 61.0755 77.264 61.1698C77.0125 63.4968 77.0125 65.824 77.264 68.1509C77.1448 68.6066 76.9561 69.0155 76.698 69.3774Z" fill="#323233"/>
<path fill-rule="evenodd" clip-rule="evenodd" d="M42.1697 58.434C42.0908 58.5702 41.9652 58.6646 41.7923 58.717C45.4737 60.0698 49.1529 61.4221 52.8301 62.7736C52.9744 62.7604 53.0687 62.6976 53.1131 62.5849C55.0912 63.2848 57.0408 64.0708 58.9621 64.9434C59.4654 65.0693 59.9684 65.0693 60.4716 64.9434C61.2476 64.5561 62.0654 64.2731 62.9244 64.0944C62.148 64.5151 61.2674 64.9555 60.2829 65.4151C60.1435 65.3904 60.0176 65.4219 59.9055 65.5095C60.0927 68.6081 60.1555 71.7214 60.0942 74.8491C61.8895 74.7874 63.6504 74.8502 65.3772 75.0378C61.9246 75.2191 58.4655 75.2819 54.9999 75.2265C55.5291 75.0719 56.0952 74.9776 56.698 74.9434C53.9121 74.8221 51.1448 74.5391 48.3961 74.0944C48.2233 74.1025 48.0974 74.1653 48.0187 74.2831C45.1816 73.9174 42.8859 72.5966 41.132 70.3208C41.0431 69.9914 40.9172 69.6768 40.7546 69.3774C40.6603 65.6044 40.6287 61.8308 40.6603 58.0566C41.1635 58.1825 41.6665 58.3082 42.1697 58.434ZM44.2452 61.2642C44.2138 63.2149 44.2452 65.1646 44.3395 67.1132C44.4859 67.7527 44.6431 68.3815 44.8112 69C45.1652 70.0223 45.6682 70.9657 46.3206 71.8302C46.2891 71.8931 46.2578 71.9561 46.2263 72.0189C44.8793 70.9251 43.9987 69.5415 43.5848 67.868C43.4276 65.6012 43.4591 63.337 43.6791 61.0755C43.8521 61.1938 44.0408 61.2568 44.2452 61.2642Z" fill="#202121"/>
<path opacity="0.541" fill-rule="evenodd" clip-rule="evenodd" d="M42.1698 58.4341C45.8212 59.8182 49.4689 61.2018 53.1132 62.585C53.0689 62.6977 52.9746 62.7605 52.8302 62.7737C49.153 61.4222 45.4738 60.0699 41.7925 58.7171C41.9653 58.6646 42.091 58.5703 42.1698 58.4341Z" fill="#0B0B0C"/>
<path opacity="0.893" fill-rule="evenodd" clip-rule="evenodd" d="M85.1885 56.7358C85.6025 57.0606 85.8227 57.5009 85.8489 58.0566C86.0132 60.8924 86.2019 63.7226 86.4149 66.5472C86.4778 65.3523 86.5408 64.1572 86.6036 62.9623C86.6474 63.1957 86.7417 63.3843 86.8866 63.5283C86.7917 64.8634 86.7917 66.1841 86.8866 67.4906C88.6702 68.2145 89.0476 69.4094 88.0187 71.0755C87.6893 71.5196 87.2491 71.7083 86.6979 71.6415C88.0319 71.1507 88.5036 70.2073 88.113 68.8113C87.9649 68.4743 87.7449 68.1913 87.4527 67.9623C86.2255 67.2666 85.2508 67.5496 84.5281 68.8113C84.3096 69.7183 84.467 70.5358 84.9998 71.2641C84.5493 71.1285 84.2662 70.8141 84.1508 70.3207C83.8268 68.8592 84.3613 67.9158 85.7545 67.4906C85.7861 64.534 85.7545 61.5779 85.6602 58.6226C85.4666 57.9996 85.3093 57.3707 85.1885 56.7358Z" fill="#202021"/>
<path opacity="0.996" fill-rule="evenodd" clip-rule="evenodd" d="M86.6982 71.6414C86.6982 71.7673 86.6982 71.8929 86.6982 72.0188C86.4814 72.0737 86.3555 72.2309 86.3208 72.4905C86.4646 73.6182 86.7161 74.7188 87.0755 75.7924C86.9627 76.0367 86.8684 76.2882 86.7925 76.5471C86.7297 76.4842 86.6667 76.4212 86.6038 76.3584C86.541 76.6729 86.478 76.9873 86.4152 77.3018C86.3523 76.6099 86.2893 75.9182 86.2265 75.2263C86.0084 74.9446 85.851 74.9761 85.7548 75.3207C85.5703 76.4786 85.4129 77.6422 85.2831 78.8112C85.0576 76.502 85.2148 74.2065 85.7548 71.9244C85.6469 71.5331 85.3954 71.3131 85.0001 71.2641C84.4672 70.5358 84.3099 69.7182 84.5284 68.8112C85.251 67.5495 86.2257 67.2665 87.4529 67.9622C87.7452 68.1912 87.9652 68.4742 88.1133 68.8112C88.5038 70.2073 88.0321 71.1507 86.6982 71.6414Z" fill="#313133"/>
<path opacity="0.512" fill-rule="evenodd" clip-rule="evenodd" d="M44.2454 61.2642C44.0411 61.2569 43.8524 61.1939 43.6794 61.0756C43.4594 63.3371 43.4279 65.6012 43.585 67.868C43.999 69.5416 44.8796 70.9252 46.2265 72.019C46.258 71.9561 46.2894 71.8931 46.3209 71.8303C45.6684 70.9657 45.1654 70.0224 44.8114 69.0001C44.9767 68.9754 45.1026 69.0382 45.1888 69.1888C45.6816 70.2688 46.2477 71.3065 46.8869 72.302C46.8554 72.3963 46.8241 72.4907 46.7926 72.585C44.7546 71.404 43.5597 69.6429 43.2077 67.302C43.0818 65.1007 43.0818 62.8995 43.2077 60.6982C43.2705 60.6354 43.3335 60.5724 43.3963 60.5095C43.7109 60.7422 43.9939 60.9939 44.2454 61.2642Z" fill="#0E0E0F"/>
<path fill-rule="evenodd" clip-rule="evenodd" d="M76.5095 70.3208C76.3799 70.8985 76.0656 71.15 75.5661 71.0755C76.066 71.5234 76.4433 71.3975 76.6982 70.6981C77.4709 70.4094 78.0369 69.9062 78.3963 69.1887C78.5069 69.2281 78.6012 69.2911 78.6793 69.3774C78.758 69.1404 78.9152 69.0145 79.151 69C78.8948 69.9838 78.4231 70.8643 77.736 71.6415C77.3237 72.0264 76.852 72.2781 76.3209 72.3962C74.8244 73.0411 73.315 73.6072 71.7926 74.0943C71.0282 74.4091 70.2105 74.6291 69.3397 74.7547C68.019 74.8636 66.6982 74.9579 65.3775 75.0377C63.6507 74.8502 61.8897 74.7874 60.0944 74.8491C60.1558 71.7213 60.0929 68.6081 59.9058 65.5094C60.0178 65.4219 60.1437 65.3904 60.2831 65.4151C60.2682 67.8372 60.2997 70.29 60.3775 72.7736C60.5814 73.174 60.7073 73.5513 60.7548 73.9057C62.686 73.7708 64.6671 73.6764 66.6982 73.6226C66.9965 73.4892 67.2795 73.3321 67.5473 73.1509C67.8192 73.2943 68.1022 73.42 68.3963 73.5283C68.6903 73.364 69.0048 73.1753 69.3397 72.9623C70.3205 73.0836 71.2954 73.2094 72.2643 73.3396C72.6314 72.8691 73.0716 72.7432 73.585 72.9623C73.9173 72.5434 74.3576 72.1032 74.9058 71.6415C74.9131 70.6321 75.0703 69.6572 75.3775 68.717C75.3146 68.6541 75.2516 68.5911 75.1888 68.5283C75.4601 68.2941 75.7431 68.1998 76.0378 68.2453C76.1007 68.5598 76.1637 68.8741 76.2265 69.1887C76.4541 66.4279 76.5799 63.6608 76.6039 60.8868C76.7837 60.4921 77.0352 60.4292 77.3586 60.6981C77.4844 63.4024 77.4844 66.107 77.3586 68.8113C77.2665 69.4443 76.9835 69.9475 76.5095 70.3208ZM76.6982 69.3774C76.6739 69.7011 76.611 70.0157 76.5095 70.3208C76.4467 70.3208 76.3837 70.3208 76.3209 70.3208C76.3024 69.9334 76.4282 69.6189 76.6982 69.3774ZM76.6982 69.3774C76.9563 69.0155 77.145 68.6066 77.2643 68.1509C77.0127 65.824 77.0127 63.4968 77.2643 61.1698C77.1699 61.0755 77.0756 60.9811 76.9812 60.8868C76.8986 63.7179 76.8043 66.5481 76.6982 69.3774Z" fill="#2D2D2E"/>
<path opacity="0.251" fill-rule="evenodd" clip-rule="evenodd" d="M76.3208 72.3962C75.3157 73.0245 74.2464 73.5591 73.1132 74C72.6774 74.0938 72.2372 74.1251 71.7925 74.0944C73.3149 73.6072 74.8244 73.0411 76.3208 72.3962Z" fill="#141515"/>
<path opacity="0.335" fill-rule="evenodd" clip-rule="evenodd" d="M55.0002 75.2263C52.6266 75.055 50.2996 74.7405 48.019 74.2829C48.0977 74.1652 48.2236 74.1024 48.3964 74.0942C51.1451 74.539 53.9124 74.822 56.6983 74.9433C56.0955 74.9774 55.5294 75.0718 55.0002 75.2263Z" fill="#070708"/>
<path fill-rule="evenodd" clip-rule="evenodd" d="M85.0002 71.2642C85.3955 71.3132 85.647 71.5332 85.7549 71.9245C85.2149 74.2066 85.0577 76.5021 85.2832 78.8113C85.413 77.6423 85.5704 76.4787 85.7549 75.3208C85.8511 74.9762 86.0085 74.9447 86.2266 75.2264C86.2894 75.9183 86.3525 76.61 86.4153 77.3019C86.4781 76.9874 86.5411 76.673 86.604 76.3585C86.6668 76.4213 86.7298 76.4843 86.7926 76.5472C86.8685 76.2883 86.9628 76.0368 87.0757 75.7925C86.7162 74.7189 86.4647 73.6183 86.3209 72.4906C86.3557 72.231 86.4815 72.0738 86.6983 72.0189C86.9138 73.941 87.2911 75.8277 87.8304 77.6793C88.5104 80.8632 90.0826 83.5991 92.5474 85.8868C90.7219 86.1723 88.9294 85.9521 87.17 85.2264C87.0257 85.2396 86.9313 85.3025 86.887 85.4151C86.0749 85.0721 85.3202 84.6317 84.6228 84.0943C85.6517 81.4964 86.1234 78.7921 86.0379 75.9811C85.7025 79.2185 84.8849 82.3004 83.5851 85.2264C83.1902 85.6176 82.8442 85.5232 82.5474 84.9434C84.2543 80.927 85.1977 76.7132 85.3776 72.3019C85.3289 71.9228 85.203 71.5768 85.0002 71.2642Z" fill="#212122"/>
<path opacity="0.616" fill-rule="evenodd" clip-rule="evenodd" d="M87.8301 77.6792C88.625 80.0771 89.7886 82.2784 91.3207 84.283C92.0505 84.9141 92.6479 85.606 93.1131 86.3584C90.9326 86.5498 88.8571 86.2352 86.8867 85.415C86.9311 85.3024 87.0254 85.2396 87.1697 85.2264C88.9292 85.952 90.7216 86.1722 92.5471 85.8867C90.0824 83.599 88.5101 80.8632 87.8301 77.6792Z" fill="#101010"/>
<path d="M132.006 47.6364V68H126.557V52.0114H119.676V68H114.227V47.6364H132.006ZM136.943 68V47.6364H145.733C147.244 47.6364 148.567 47.9347 149.7 48.5312C150.834 49.1278 151.715 49.9664 152.345 51.0469C152.975 52.1274 153.29 53.3902 153.29 54.8352C153.29 56.2936 152.965 57.5563 152.315 58.6236C151.672 59.6908 150.767 60.5128 149.601 61.0895C148.441 61.6662 147.085 61.9545 145.534 61.9545H140.284V57.6591H144.42C145.07 57.6591 145.623 57.5464 146.081 57.321C146.545 57.089 146.899 56.7609 147.145 56.3366C147.397 55.9124 147.523 55.4119 147.523 54.8352C147.523 54.2519 147.397 53.7547 147.145 53.3438C146.899 52.9261 146.545 52.608 146.081 52.3892C145.623 52.1638 145.07 52.0511 144.42 52.0511H142.471V68H136.943ZM176.445 57.8182C176.445 60.0852 176.004 61.9976 175.123 63.5554C174.241 65.1065 173.051 66.2831 171.553 67.0852C170.055 67.8807 168.385 68.2784 166.542 68.2784C164.686 68.2784 163.009 67.8774 161.511 67.0753C160.019 66.2666 158.833 65.0866 157.951 63.5355C157.076 61.9777 156.638 60.072 156.638 57.8182C156.638 55.5511 157.076 53.642 157.951 52.0909C158.833 50.5331 160.019 49.3565 161.511 48.5611C163.009 47.759 164.686 47.358 166.542 47.358C168.385 47.358 170.055 47.759 171.553 48.5611C173.051 49.3565 174.241 50.5331 175.123 52.0909C176.004 53.642 176.445 55.5511 176.445 57.8182ZM170.758 57.8182C170.758 56.5985 170.595 55.571 170.271 54.7358C169.952 53.8939 169.478 53.2576 168.849 52.8267C168.226 52.3892 167.457 52.1705 166.542 52.1705C165.627 52.1705 164.855 52.3892 164.225 52.8267C163.602 53.2576 163.128 53.8939 162.803 54.7358C162.485 55.571 162.326 56.5985 162.326 57.8182C162.326 59.0379 162.485 60.0687 162.803 60.9105C163.128 61.7457 163.602 62.3821 164.225 62.8196C164.855 63.2505 165.627 63.4659 166.542 63.4659C167.457 63.4659 168.226 63.2505 168.849 62.8196C169.478 62.3821 169.952 61.7457 170.271 60.9105C170.595 60.0687 170.758 59.0379 170.758 57.8182ZM189.153 49.6648H194.602C196.312 49.6648 197.827 50.0128 199.146 50.7088C200.472 51.4048 201.509 52.3925 202.258 53.6719C203.014 54.9512 203.392 56.4659 203.392 58.2159C203.392 59.8731 203.014 61.3082 202.258 62.5213C201.509 63.7344 200.472 64.6723 199.146 65.3352C197.827 65.9981 196.312 66.3295 194.602 66.3295H189.153C187.43 66.3295 185.902 66.0014 184.569 65.3452C183.244 64.6889 182.203 63.7509 181.447 62.5312C180.698 61.3116 180.324 59.8598 180.324 58.1761C180.324 56.4261 180.705 54.9148 181.467 53.642C182.236 52.3693 183.283 51.3883 184.609 50.6989C185.941 50.0095 187.456 49.6648 189.153 49.6648ZM189.153 54.1989C188.464 54.1989 187.827 54.3281 187.244 54.5866C186.667 54.8452 186.203 55.2661 185.852 55.8494C185.507 56.4328 185.335 57.2083 185.335 58.1761C185.335 59.0644 185.514 59.7737 185.872 60.304C186.236 60.8343 186.707 61.2154 187.284 61.4474C187.867 61.6795 188.49 61.7955 189.153 61.7955H194.642C195.318 61.7955 195.934 61.6761 196.491 61.4375C197.055 61.1922 197.502 60.8078 197.834 60.2841C198.172 59.7538 198.341 59.0644 198.341 58.2159C198.341 57.2481 198.172 56.4692 197.834 55.8793C197.502 55.2893 197.055 54.8617 196.491 54.5966C195.934 54.3314 195.318 54.1989 194.642 54.1989H189.153ZM194.443 47.2784V68.8352H189.272V47.2784H194.443Z" fill="#202021"/>
<path d="M215.217 60.4432H219.513L221.064 62.392L223.689 65.375L227.109 69.5114H222.217L219.791 66.6875L218.16 64.3409L215.217 60.4432ZM227.069 57.8182C227.069 60.0852 226.629 61.9976 225.747 63.5554C224.865 65.1065 223.676 66.2831 222.177 67.0852C220.679 67.8807 219.009 68.2784 217.166 68.2784C215.31 68.2784 213.633 67.8774 212.135 67.0753C210.643 66.2666 209.457 65.0866 208.575 63.5355C207.7 61.9777 207.263 60.072 207.263 57.8182C207.263 55.5511 207.7 53.642 208.575 52.0909C209.457 50.5331 210.643 49.3565 212.135 48.5611C213.633 47.759 215.31 47.358 217.166 47.358C219.009 47.358 220.679 47.759 222.177 48.5611C223.676 49.3565 224.865 50.5331 225.747 52.0909C226.629 53.642 227.069 55.5511 227.069 57.8182ZM221.382 57.8182C221.382 56.5985 221.22 55.571 220.895 54.7358C220.577 53.8939 220.103 53.2576 219.473 52.8267C218.85 52.3892 218.081 52.1705 217.166 52.1705C216.251 52.1705 215.479 52.3892 214.849 52.8267C214.226 53.2576 213.752 53.8939 213.427 54.7358C213.109 55.571 212.95 56.5985 212.95 57.8182C212.95 59.0379 213.109 60.0687 213.427 60.9105C213.752 61.7457 214.226 62.3821 214.849 62.8196C215.479 63.2505 216.251 63.4659 217.166 63.4659C218.081 63.4659 218.85 63.2505 219.473 62.8196C220.103 62.3821 220.577 61.7457 220.895 60.9105C221.22 60.0687 221.382 59.0379 221.382 57.8182ZM243.106 47.6364H248.634V60.6818C248.634 62.233 248.263 63.5753 247.521 64.7088C246.785 65.8357 245.757 66.7074 244.438 67.3239C243.119 67.9337 241.588 68.2386 239.844 68.2386C238.088 68.2386 236.55 67.9337 235.231 67.3239C233.912 66.7074 232.884 65.8357 232.148 64.7088C231.419 63.5753 231.055 62.233 231.055 60.6818V47.6364H236.583V60.2045C236.583 60.8343 236.722 61.3977 237.001 61.8949C237.279 62.3854 237.664 62.7699 238.154 63.0483C238.651 63.3267 239.215 63.4659 239.844 63.4659C240.481 63.4659 241.044 63.3267 241.535 63.0483C242.025 62.7699 242.41 62.3854 242.688 61.8949C242.967 61.3977 243.106 60.8343 243.106 60.2045V47.6364ZM252.662 68V47.6364H267.338V52.0909H258.19V55.5909H266.582V60.0455H258.19V63.5455H267.298V68H252.662ZM282.457 54C282.404 53.3371 282.155 52.8201 281.711 52.4489C281.274 52.0777 280.608 51.892 279.713 51.892C279.143 51.892 278.675 51.9616 278.311 52.1009C277.953 52.2334 277.688 52.4157 277.515 52.6477C277.343 52.8797 277.253 53.1449 277.247 53.4432C277.233 53.6884 277.277 53.9105 277.376 54.1094C277.482 54.3016 277.648 54.4773 277.873 54.6364C278.099 54.7888 278.387 54.928 278.738 55.054C279.09 55.1799 279.507 55.2926 279.991 55.392L281.662 55.75C282.788 55.9886 283.753 56.3035 284.555 56.6946C285.357 57.0857 286.013 57.5464 286.524 58.0767C287.034 58.6004 287.409 59.1903 287.647 59.8466C287.893 60.5028 288.019 61.2187 288.025 61.9943C288.019 63.3333 287.684 64.4669 287.021 65.3949C286.358 66.3229 285.41 67.0289 284.177 67.5128C282.951 67.9967 281.476 68.2386 279.752 68.2386C277.983 68.2386 276.438 67.9768 275.119 67.4531C273.806 66.9295 272.786 66.1241 272.056 65.0369C271.334 63.9432 270.969 62.5445 270.963 60.8409H276.213C276.246 61.464 276.402 61.9877 276.68 62.4119C276.958 62.8362 277.349 63.1577 277.853 63.3764C278.364 63.5952 278.97 63.7045 279.673 63.7045C280.263 63.7045 280.757 63.6316 281.154 63.4858C281.552 63.34 281.854 63.1378 282.059 62.8793C282.265 62.6207 282.371 62.3258 282.377 61.9943C282.371 61.6828 282.268 61.411 282.069 61.179C281.877 60.9403 281.559 60.7282 281.115 60.5426C280.671 60.3504 280.071 60.1714 279.315 60.0057L277.287 59.5682C275.483 59.1771 274.062 58.5241 273.021 57.6094C271.987 56.688 271.473 55.4318 271.48 53.8409C271.473 52.5483 271.818 51.4181 272.514 50.4503C273.216 49.4759 274.188 48.7169 275.427 48.1733C276.673 47.6297 278.102 47.358 279.713 47.358C281.357 47.358 282.778 47.633 283.978 48.1832C285.178 48.7334 286.103 49.509 286.752 50.5099C287.409 51.5043 287.74 52.6676 287.747 54H282.457ZM290.971 52.0909V47.6364H308.67V52.0909H302.545V68H297.096V52.0909H290.971ZM323.128 54C323.075 53.3371 322.826 52.8201 322.382 52.4489C321.945 52.0777 321.279 51.892 320.384 51.892C319.814 51.892 319.346 51.9616 318.982 52.1009C318.624 52.2334 318.359 52.4157 318.186 52.6477C318.014 52.8797 317.924 53.1449 317.918 53.4432C317.905 53.6884 317.948 53.9105 318.047 54.1094C318.153 54.3016 318.319 54.4773 318.544 54.6364C318.77 54.7888 319.058 54.928 319.409 55.054C319.761 55.1799 320.178 55.2926 320.662 55.392L322.333 55.75C323.459 55.9886 324.424 56.3035 325.226 56.6946C326.028 57.0857 326.684 57.5464 327.195 58.0767C327.705 58.6004 328.08 59.1903 328.318 59.8466C328.564 60.5028 328.69 61.2187 328.696 61.9943C328.69 63.3333 328.355 64.4669 327.692 65.3949C327.029 66.3229 326.081 67.0289 324.848 67.5128C323.622 67.9967 322.147 68.2386 320.424 68.2386C318.654 68.2386 317.109 67.9768 315.79 67.4531C314.477 66.9295 313.457 66.1241 312.727 65.0369C312.005 63.9432 311.64 62.5445 311.634 60.8409H316.884C316.917 61.464 317.073 61.9877 317.351 62.4119C317.629 62.8362 318.021 63.1577 318.524 63.3764C319.035 63.5952 319.641 63.7045 320.344 63.7045C320.934 63.7045 321.428 63.6316 321.826 63.4858C322.223 63.34 322.525 63.1378 322.73 62.8793C322.936 62.6207 323.042 62.3258 323.049 61.9943C323.042 61.6828 322.939 61.411 322.74 61.179C322.548 60.9403 322.23 60.7282 321.786 60.5426C321.342 60.3504 320.742 60.1714 319.986 60.0057L317.958 59.5682C316.155 59.1771 314.733 58.5241 313.692 57.6094C312.658 56.688 312.144 55.4318 312.151 53.8409C312.144 52.5483 312.489 51.4181 313.185 50.4503C313.888 49.4759 314.859 48.7169 316.098 48.1733C317.344 47.6297 318.773 47.358 320.384 47.358C322.028 47.358 323.45 47.633 324.649 48.1832C325.849 48.7334 326.774 49.509 327.424 50.5099C328.08 51.5043 328.411 52.6676 328.418 54H323.128Z" fill="#323232"/>
</svg>
